<svg xmlns="http://www.w3.org/2000/svg" width="140" height="140">
    <style xmlns="http://www.w3.org/2000/svg">.st10{fill:#a1acb3}</style>
    <g transform="translate(-996 -418)">
        <circle cx="1065.6" cy="488.3" r="66.7" style="fill:#c8d4db"/>
        <path d="M1108.1 436.8c9.5 11.5 15.2 26.3 15.2 42.4 0 36.9-29.9 66.7-66.7 66.7-16.1 0-30.9-5.7-42.4-15.2 12.2 14.8 30.8 24.3 51.5 24.3 36.9 0 66.7-29.9 66.7-66.7 0-20.7-9.5-39.3-24.3-51.5z"
              style="fill:#b1bcc3"/>
        <path d="M1065.6 557.9c-38.4 0-69.6-31.2-69.6-69.6s31.2-69.6 69.6-69.6 69.6 31.2 69.6 69.6-31.2 69.6-69.6 69.6zm0-133.4c-35.2 0-63.8 28.6-63.8 63.8 0 35.2 28.6 63.8 63.8 63.8s63.8-28.6 63.8-63.8c.1-35.2-28.6-63.8-63.8-63.8z"
              style="fill:#00445d"/>
        <circle class="st10" cx="1084.9" cy="456.8" r="18.5"/>
        <path d="M1087 469.1c-10.2 0-18.5-8.3-18.5-18.5 0-.9.1-1.9.2-2.8-1.5 2.6-2.3 5.7-2.3 8.9 0 10.2 8.3 18.5 18.5 18.5 9.3 0 16.9-6.8 18.3-15.7-3.2 5.8-9.2 9.6-16.2 9.6z"
              style="fill:#949fa5"/>
        <circle class="st10" cx="1028.1" cy="485.8" r="10.5"/>
        <circle class="st10" cx="1068.5" cy="529.1" r="12.9"/>
    </g>
</svg>
