<svg xmlns="http://www.w3.org/2000/svg" width="141" height="233">
    <style xmlns="http://www.w3.org/2000/svg">
        .st3{fill:#00445d}.st6{fill:#f9a983}.st13{fill:#81cbf1}.st21{fill:#e29375}
    </style>
    <g transform="translate(-633 -372)">
        <path d="M673.7 434.7c-6.9 21.5-10.5 44-10.5 66.8v58.9h80.5v-58.9c0-22.8-3.6-45.3-10.5-66.8h-59.5z"
              style="fill:#ffe296"/>
        <path d="M733.3 434.7h-15.2c6.9 21.5 10.5 44 10.5 66.8v58.9h15.2v-58.9c0-22.8-3.6-45.3-10.5-66.8z"
              style="fill:#ebc588"/>
        <path class="st3"
              d="M743.8 563.3h-80.5c-1.6 0-2.9-1.3-2.9-2.9v-58.9c0-23 3.6-45.7 10.6-67.6.4-1.2 1.5-2 2.8-2h59.6c1.3 0 2.4.8 2.8 2 7 21.9 10.6 44.6 10.6 67.6v58.9c-.1 1.6-1.4 2.9-3 2.9zm-77.6-5.8h74.7v-56c0-21.7-3.3-43.2-9.7-63.9h-55.3c-6.4 20.7-9.7 42.2-9.7 63.9v56z"/>
        <path class="st6"
              d="M673.7 434.7h59.6c-6.1-19-14.8-37.2-26-53.9l-3.8-5.7-3.8 5.7c-11.2 16.8-19.9 34.9-26 53.9z"/>
        <path class="st21"
              d="M673.7 434.7zM733.3 434.7zM718.1 434.7h15.2c-6.1-19-14.8-37.2-26-53.9l-3.8-5.7-3.8 5.7c-1.3 2-2.6 3.9-3.8 5.9 9.4 15.1 16.8 31.3 22.2 48z"/>
        <path class="st3"
              d="M733.3 437.6h-59.6c-.9 0-1.8-.4-2.3-1.2-.5-.7-.7-1.7-.4-2.6 6.2-19.3 15.1-37.7 26.3-54.7l3.8-5.7c.5-.8 1.4-1.3 2.4-1.3s1.9.5 2.4 1.3l3.8 5.7c11.2 16.9 20.1 35.3 26.3 54.7.5 1.5-.3 3.1-1.8 3.6-.2.2-.6.2-.9.2zm-55.6-5.8h51.5c-6-17.5-14.2-34.1-24.4-49.4l-1.4-2.1-1.4 2.1c-10.1 15.4-18.3 32-24.3 49.4z"/>
        <circle class="st13" cx="703.5" cy="486.8" r="26.8"/>
        <path class="st3"
              d="M703.5 516.5c-16.4 0-29.7-13.3-29.7-29.7s13.3-29.7 29.7-29.7 29.7 13.3 29.7 29.7-13.3 29.7-29.7 29.7zm0-53.6c-13.2 0-23.9 10.7-23.9 23.9s10.7 23.9 23.9 23.9 23.9-10.7 23.9-23.9-10.7-23.9-23.9-23.9z"/>
        <circle cx="703.5" cy="486.8" r="15.2" style="fill:#c8d4db"/>
        <path class="st3"
              d="M703.5 504.9c-10 0-18.1-8.1-18.1-18.1s8.1-18.1 18.1-18.1 18.1 8.1 18.1 18.1-8.1 18.1-18.1 18.1zm0-30.5c-6.8 0-12.3 5.5-12.3 12.3s5.5 12.3 12.3 12.3c6.8 0 12.3-5.5 12.3-12.3s-5.5-12.3-12.3-12.3z"/>
        <path class="st6" d="m662 501.5-14.6 13.2c-7.7 6.9-12.1 16.8-12.1 27.2v59.6L662 559v-57.5z"/>
        <path class="st21" d="M651.9 510.6v64.5L662 559v-57.5z"/>
        <path class="st3"
              d="M635.3 604.4c-.3 0-.5 0-.8-.1-1.2-.4-2.1-1.5-2.1-2.8v-59.6c0-11.2 4.8-21.9 13-29.3l14.6-13.2c.9-.8 2.1-1 3.1-.5s1.7 1.5 1.7 2.7V559c0 .5-.2 1.1-.4 1.5l-26.7 42.6c-.5.8-1.4 1.3-2.4 1.3zm23.8-96.4-9.8 8.8c-7.1 6.4-11.1 15.5-11.1 25v49.6l20.9-33.3V508z"/>
        <path class="st6" d="m743.8 501.5 14.6 13.2c7.7 6.9 12.1 16.8 12.1 27.2v59.6L743.8 559v-57.5z"/>
        <path class="st21" d="m753.7 510.4-9.9-8.9V559l9.9 15.8z"/>
        <path class="st3"
              d="M770.5 604.4c-1 0-1.9-.5-2.5-1.4l-26.7-42.6c-.3-.5-.4-1-.4-1.5v-57.5c0-1.1.7-2.2 1.7-2.7s2.3-.3 3.1.5l14.6 13.2c8.3 7.5 13 18.2 13 29.3v59.6c0 1.3-.9 2.4-2.1 2.8-.2.3-.4.3-.7.3zm-23.8-46.3 20.9 33.3v-49.6c0-9.5-4.1-18.7-11.1-25l-9.8-8.8v50.1z"/>
        <path class="st13" d="M722.1 576.6h-39.6l3.6-16.2h32.3z"/>
        <path style="fill:#60b7df" d="M718.4 560.4h-15l3.7 16.2h15z"/>
        <path class="st3"
              d="M722.1 579.5h-39.5c-.9 0-1.7-.4-2.3-1.1-.6-.7-.8-1.6-.6-2.4l3.6-16.1c.3-1.3 1.5-2.3 2.8-2.3h32.3c1.4 0 2.5.9 2.8 2.3l3.6 16.1c.2.9 0 1.8-.6 2.4-.4.7-1.3 1.1-2.1 1.1zm-36-5.9h32.3l-2.3-10.3h-27.6l-2.4 10.3z"/>
    </g>
</svg>
